<svg xmlns="http://www.w3.org/2000/svg" xmlns:svg="http://www.w3.org/2000/svg" xmlns:xlink="http://www.w3.org/1999/xlink" id="svg8" width="800" height="250" version="1.1" viewBox="0 0 211.667 66.146"><metadata id="metadata5"/><g id="layer1"><rect style="fill:#fff;fill-opacity:1;stroke:none;stroke-width:.865;stroke-miterlimit:4;stroke-dasharray:none;stroke-opacity:1" id="rect4806" width="212.99" height="66.94" x="0" y="-.794"/></g><g id="layer3" transform="translate(-35.701667,-148.14228)" style="display:inline;opacity:1"><flowRoot id="flowRoot39335" transform="matrix(0.94646665,0,0,0.94646665,-302.31879,-191.42898)" xml:space="preserve" style="font-style:normal;font-variant:normal;font-weight:400;font-stretch:normal;font-size:40px;line-height:1.25;font-family:'Latin Modern Roman Unslanted';-inkscape-font-specification:'Latin Modern Roman Unslanted';letter-spacing:0;word-spacing:0;fill:#885400;fill-opacity:1;stroke:#000;stroke-opacity:1"><flowRegion id="flowRegion39337" style="font-style:normal;font-variant:normal;font-weight:400;font-stretch:normal;font-family:'Latin Modern Roman Unslanted';-inkscape-font-specification:'Latin Modern Roman Unslanted';fill:#885400;fill-opacity:1;stroke:#000;stroke-opacity:1"><rect id="rect39339" width="166.59" height="74.502" x="426.789" y="363.39" style="font-style:normal;font-variant:normal;font-weight:400;font-stretch:normal;font-family:'Latin Modern Roman Unslanted';-inkscape-font-specification:'Latin Modern Roman Unslanted';fill:#885400;fill-opacity:1;stroke:#000;stroke-opacity:1"/></flowRegion><flowPara id="flowPara39341" style="font-style:normal;font-variant:normal;font-weight:400;font-stretch:normal;font-size:64.00170135px;font-family:'Latin Modern Mono Prop';-inkscape-font-specification:'Latin Modern Mono Prop, Normal';font-variant-ligatures:normal;font-variant-caps:normal;font-variant-numeric:normal;font-feature-settings:normal;text-align:start;writing-mode:lr-tb;text-anchor:start;fill:#885400;fill-opacity:1;stroke:#000;stroke-opacity:1">ciuro</flowPara></flowRoot></g><g id="layer2" transform="translate(-35.701667,-148.14228)" style="display:inline"><path id="path39412" d="m 56.236699,179.11269 c 0.983413,1.08301 0.647246,4.77734 -2.69274,3.75179 -2.39241,-2.20214 1.122971,-4.79779 2.69274,-3.75179 z m 33.751964,-25.75178 c -0.348207,-0.005 -0.703805,-0.005 -1.066086,0.001 -24.260881,0.35401 -25.401954,26.08655 -11.624603,34.4679 -5.018315,-3.35038 -11.864059,-1.04803 -14.336085,-12.35556 4.82415,-2.92801 0.14546,-14.21756 -6.214092,-1.33635 0,0 -6.793224,-1.25282 -8.752953,11.359 0.443896,2.34264 5.405336,3.36639 8.285281,1.8712 -0.03152,2.64461 0.994399,4.86856 2.405023,6.71277 -2.392487,1.39408 -6.280719,1.70719 -8.40414,1.50172 -0.386893,-0.50699 -0.819156,-0.7329 -1.274855,-0.73536 -1.624598,-0.009 -3.541758,2.826 -4.720127,5.91902 -0.86088,-0.38069 -1.962399,-0.90942 -2.411222,-1.48518 l -0.523484,0.74311 c 0,0 1.2391,0.68306 2.841173,1.00148 -1.427652,3.90119 -1.647352,8.09585 1.392679,7.4595 6.056469,1.53358 8.643485,-0.0377 10.855666,-3.35484 0.351872,-3.18667 -0.209825,-5.66444 -3.367235,-7.92613 1.825733,0.33726 5.248764,0.7683 8.905917,0.19896 0.594455,0.48751 1.178192,0.92967 1.717207,1.32395 2.007139,5.21466 7.482062,8.45145 12.121742,9.14931 29.079541,4.37389 27.377041,-21.33466 13.759881,-24.37836 -7.107365,-1.58864 -15.531632,-10.03467 -2.51509,-18.57458 -3.896074,12.27037 17.02582,18.46769 17.54569,1.67484 0.2445,-7.89767 -3.82588,-13.0858 -14.620287,-13.23744 z m -11.658798,39.35245 c -12.549544,-1.27141 -12.587669,11.11318 2.238382,15.66868 13.605015,0.16346 6.086098,-16.12236 -0.641447,-19.37036" style="fill:#885400;fill-opacity:1;stroke:#000;stroke-width:.86500001;stroke-linecap:butt;stroke-linejoin:miter;stroke-miterlimit:4;stroke-dasharray:none;stroke-opacity:1"/><path style="fill:#000;fill-opacity:1;stroke:#000;stroke-width:2.51743531;stroke-miterlimit:4;stroke-dasharray:none;stroke-opacity:1" id="path40260" transform="matrix(0.26458333,0,0,0.26458333,0,87)"/><path style="fill:#000;fill-opacity:.99239544;stroke:#000;stroke-width:.00728516;stroke-miterlimit:4;stroke-dasharray:none;stroke-opacity:1" id="path40268" d="m 47.877351,183.57299 c -0.0036,-0.001 -0.0063,-0.003 -0.0065,-0.004 -5.29e-4,-0.003 0.0011,-0.002 0.0088,0.002 0.0078,0.005 0.0071,0.005 -0.0021,0.002 z"/><use id="use40270" width="100%" height="100%" x="0" y="0" transform="translate(6.4354428,1.1741531)" xlink:href="#path40268"/><use id="use40272" width="100%" height="100%" x="0" y="0" transform="translate(5.5910648,0.42418062)" xlink:href="#path40268"/><use id="use40274" width="100%" height="100%" x="0" y="0" transform="translate(8.6243578,3.007407)" xlink:href="#path40268"/><use id="use40276" width="100%" height="100%" x="0" y="0" transform="translate(9.3419448,1.9829288)" xlink:href="#path40268"/><use id="use40278" width="100%" height="100%" x="0" y="0" transform="translate(7.5877368,3.9135425)" xlink:href="#path40268"/><use id="use40280" width="100%" height="100%" x="0" y="0" transform="translate(6.5973888,4.7495382)" xlink:href="#path40268"/><use id="use40282" width="100%" height="100%" x="0" y="0" transform="translate(7.6240628,6.4748115)" xlink:href="#path40268"/><use id="use40284" width="100%" height="100%" x="0" y="0" transform="translate(7.1564338,4.4611833)" xlink:href="#path40268"/><use id="use40286" width="100%" height="100%" x="0" y="0" transform="translate(7.3806668,6.3757976)" xlink:href="#path40268"/><use id="use40288" width="100%" height="100%" x="0" y="0" transform="translate(7.0818208,3.8654582)" xlink:href="#path40268"/><use id="use40290" width="100%" height="100%" x="0" y="0" transform="translate(6.4568058,6.4924667)" xlink:href="#path40268"/><use id="use40292" width="100%" height="100%" x="0" y="0" transform="translate(7.3766678,5.0699947)" xlink:href="#path40268"/><use id="use40294" width="100%" height="100%" x="0" y="0" transform="translate(6.4927048,6.9621482)" xlink:href="#path40268"/><use id="use40296" width="100%" height="100%" x="0" y="0" transform="translate(6.2429208,6.2811519)" xlink:href="#path40268"/><use id="use40298" width="100%" height="100%" x="0" y="0" transform="translate(5.6841728,7.2221572)" xlink:href="#path40268"/><use id="use40300" width="100%" height="100%" x="0" y="0" transform="translate(7.0788158,6.7390729)" xlink:href="#path40268"/><use id="use40302" width="100%" height="100%" x="0" y="0" transform="translate(5.6018668,4.4250045)" xlink:href="#path40268"/><use id="use40304" width="100%" height="100%" x="0" y="0" transform="translate(5.5378128,6.3799007)" xlink:href="#path40268"/><use id="use40306" width="100%" height="100%" x="0" y="0" transform="translate(5.7610688,5.8777829)" xlink:href="#path40268"/><use id="use40308" width="100%" height="100%" x="0" y="0" transform="translate(5.1389458,3.9960328)" xlink:href="#path40268"/><use id="use40310" width="100%" height="100%" x="0" y="0" transform="translate(7.9322838,1.547339)" xlink:href="#path40268"/><use id="use40312" width="100%" height="100%" x="0" y="0" transform="translate(7.7731518,0.41802152)" xlink:href="#path40268"/><use id="use40314" width="100%" height="100%" x="0" y="0" transform="translate(5.6325428,0.87768632)" xlink:href="#path40268"/><use id="use40316" width="100%" height="100%" x="0" y="0" transform="translate(7.6869368,2.2849749)" xlink:href="#path40268"/><use id="use40318" width="100%" height="100%" x="0" y="0" transform="translate(8.8410038,-1.595393)" xlink:href="#path40268"/><use id="use40320" width="100%" height="100%" x="0" y="0" transform="translate(7.3053658,-0.06400818)" xlink:href="#path40268"/><use id="use40322" width="100%" height="100%" x="0" y="0" transform="translate(8.0621008,-0.35426598)" xlink:href="#path40268"/><use id="use40324" width="100%" height="100%" x="0" y="0" transform="translate(8.9319558,-1.0677352)" xlink:href="#path40268"/><use id="use40326" width="100%" height="100%" x="0" y="0" transform="translate(7.1019888,-0.83031708)" xlink:href="#path40268"/><use id="use40328" width="100%" height="100%" x="0" y="0" transform="translate(5.2043658,1.4504411)" xlink:href="#path40268"/><use id="use40330" width="100%" height="100%" x="0" y="0" transform="translate(7.3105708,2.3559712)" xlink:href="#path40268"/><use id="use40332" width="100%" height="100%" x="0" y="0" transform="translate(6.9754918,0.31548602)" xlink:href="#path40268"/><use id="use40334" width="100%" height="100%" x="0" y="0" transform="translate(7.0252368,0.20897982)" xlink:href="#path40268"/><use id="use40336" width="100%" height="100%" x="0" y="0" transform="translate(6.7249418,-0.70850798)" xlink:href="#path40268"/><use id="use40338" width="100%" height="100%" x="0" y="0" transform="translate(7.1459118,-0.29629698)" xlink:href="#path40268"/><use id="use40340" width="100%" height="100%" x="0" y="0" transform="translate(5.2035408,1.1043503)" xlink:href="#path40268"/><use id="use40342" width="100%" height="100%" x="0" y="0" transform="translate(4.9380208,0.33506242)" xlink:href="#path40268"/><use id="use40344" width="100%" height="100%" x="0" y="0" transform="translate(6.1013118,3.914214)" xlink:href="#path40268"/><use id="use40346" width="100%" height="100%" x="0" y="0" transform="translate(31.91221,-4.4935068)" xlink:href="#path40268"/><use id="use40348" width="100%" height="100%" x="0" y="0" transform="translate(31.782851,-2.73693)" xlink:href="#path40268"/><use id="use40350" width="100%" height="100%" x="0" y="0" transform="translate(33.60999,-5.3351804)" xlink:href="#path40268"/><use id="use40352" width="100%" height="100%" x="0" y="0" transform="translate(32.79796,-4.2366596)" xlink:href="#path40268"/><use id="use40354" width="100%" height="100%" x="0" y="0" transform="translate(34.867285,-2.7296566)" xlink:href="#path40268"/><use id="use40356" width="100%" height="100%" x="0" y="0" transform="translate(32.594864,-3.4618917)" xlink:href="#path40268"/><use id="use40358" width="100%" height="100%" x="0" y="0" transform="translate(37.08473,-4.7859275)" xlink:href="#path40268"/><use id="use40360" width="100%" height="100%" x="0" y="0" transform="translate(35.129055,-4.5412274)" xlink:href="#path40268"/><use id="use40362" width="100%" height="100%" x="0" y="0" transform="translate(35.040654,-2.5831161)" xlink:href="#path40268"/><use id="use40364" width="100%" height="100%" x="0" y="0" transform="translate(34.264411,-3.115928)" xlink:href="#path40268"/><use id="use40366" width="100%" height="100%" x="0" y="0" transform="translate(38.327528,-5.2246724)" xlink:href="#path40268"/><use id="use40368" width="100%" height="100%" x="0" y="0" transform="translate(36.039888,-3.4392475)" xlink:href="#path40268"/><use id="use40370" width="100%" height="100%" x="0" y="0" transform="translate(33.875352,-5.3753054)" xlink:href="#path40268"/><use id="use40372" width="100%" height="100%" x="0" y="0" transform="translate(32.787423,-8.2658364)" xlink:href="#path40268"/><use id="use40374" width="100%" height="100%" x="0" y="0" transform="translate(35.52779,-5.9918314)" xlink:href="#path40268"/><use id="use40376" width="100%" height="100%" x="0" y="0" transform="translate(33.158318,-6.1832034)" xlink:href="#path40268"/><use id="use40378" width="100%" height="100%" x="0" y="0" transform="translate(34.069187,-8.6388554)" xlink:href="#path40268"/><use id="use40380" width="100%" height="100%" x="0" y="0" transform="translate(33.884082,-6.7864674)" xlink:href="#path40268"/></g></svg>